<?xml version="1.0" encoding="UTF-8" standalone="no"?>
<!-- Created with Inkscape (http://www.inkscape.org/) -->

<svg
   xmlns:dc="http://purl.org/dc/elements/1.1/"
   xmlns:cc="http://creativecommons.org/ns#"
   xmlns:rdf="http://www.w3.org/1999/02/22-rdf-syntax-ns#"
   xmlns:svg="http://www.w3.org/2000/svg"
   xmlns="http://www.w3.org/2000/svg"
   xmlns:sodipodi="http://sodipodi.sourceforge.net/DTD/sodipodi-0.dtd"
   xmlns:inkscape="http://www.inkscape.org/namespaces/inkscape"
   width="20.557968mm"
   height="71.737534mm"
   viewBox="0 0 20.557969 71.737534"
   version="1.1"
   id="svg8"
   inkscape:export-filename="/home/jacob/rocket_health/rocket_unpowerd.png"
   inkscape:export-xdpi="131.69151"
   inkscape:export-ydpi="131.69151"
   inkscape:version="0.92.4 (5da689c313, 2019-01-14)"
   sodipodi:docname="drawing.svg">
  <defs
     id="defs2">
    <inkscape:perspective
       sodipodi:type="inkscape:persp3d"
       inkscape:vp_x="0 : 30.000001 : 1"
       inkscape:vp_y="0 : 1000.0002 : 0"
       inkscape:vp_z="30.000002 : 30.000003 : 1"
       inkscape:persp3d-origin="15.000001 : 20.000001 : 1"
       id="perspective78" />
  </defs>
  <sodipodi:namedview
     id="base"
     pagecolor="#ffffff"
     bordercolor="#666666"
     borderopacity="1.0"
     inkscape:pageopacity="0.0"
     inkscape:pageshadow="2"
     inkscape:zoom="0.72818053"
     inkscape:cx="253.97604"
     inkscape:cy="268.88322"
     inkscape:document-units="mm"
     inkscape:current-layer="layer1"
     showgrid="false"
     scale-x="1"
     inkscape:window-width="1530"
     inkscape:window-height="836"
     inkscape:window-x="70"
     inkscape:window-y="27"
     inkscape:window-maximized="1"
     inkscape:snap-global="false" />
  <metadata
     id="metadata5">
    <rdf:RDF>
      <cc:Work
         rdf:about="">
        <dc:format>image/svg+xml</dc:format>
        <dc:type
           rdf:resource="http://purl.org/dc/dcmitype/StillImage" />
        <dc:title></dc:title>
      </cc:Work>
    </rdf:RDF>
  </metadata>
  <g
     inkscape:label="Layer 1"
     inkscape:groupmode="layer"
     id="layer1"
     transform="translate(-4.9862745,-231.32968)">
    <rect
       id="rect10"
       width="20.221725"
       height="29.860119"
       x="5.1026788"
       y="250.50891"
       style="stroke-width:0.25690976" />
    <path
       style="fill:none;stroke:#000000;stroke-width:0.26458332px;stroke-linecap:butt;stroke-linejoin:miter;stroke-opacity:1"
       d="M 5.1026786,250.50891 15.308035,231.61012 25.324404,250.50891 H 5.1026786"
       id="path12"
       inkscape:connector-curvature="0" />
    <path
       style="stroke-width:0.1889881"
       d="m 5.6800516,250.01605 c 0.1782513,-0.46494 9.3705944,-17.49543 9.5426534,-17.67951 0.11596,-0.12406 9.647773,17.5651 9.647773,17.90436 0,0.0582 -4.346375,0.10588 -9.658612,0.10588 -9.1209903,0 -9.6515545,-0.0184 -9.5318144,-0.33073 z"
       id="path14"
       inkscape:connector-curvature="0" />
    <path
       style="stroke-width:0.1889881"
       d="m 8.6647494,250.20952 c -1.5851377,-0.0339 -2.8820683,-0.0964 -2.8820683,-0.1389 0,-0.22445 9.2341899,-17.26122 9.4171219,-17.37428 0.07286,-0.045 0.843835,1.20773 1.713281,2.78391 2.707136,4.90765 7.808738,14.5117 7.739693,14.57041 -0.112924,0.096 -12.956479,0.22363 -15.9880276,0.15886 z"
       id="path16"
       inkscape:connector-curvature="0" />
    <path
       style="stroke-width:0.1889881"
       d="m 8.5702554,250.21021 c -1.533166,-0.0344 -2.7875743,-0.10325 -2.7875743,-0.15302 0,-0.20095 8.9709129,-16.80968 9.3148459,-17.24549 0.224028,-0.28387 0.151364,-0.40299 3.433524,5.62883 3.486276,6.40693 6.196462,11.54641 6.122193,11.60987 -0.112884,0.0965 -13.137705,0.22587 -16.0829886,0.15981 z"
       id="path18"
       inkscape:connector-curvature="0" />
    <path
       style="stroke-width:0.1889881"
       d="m 7.5308207,250.21599 c -0.9614768,-0.0398 -1.7481396,-0.12139 -1.7481396,-0.18129 0,-0.2506 9.0171169,-16.88415 9.3334329,-17.21705 0.176381,-0.18563 0.820622,0.85442 2.985181,4.8192 3.732178,6.83615 6.637406,12.3391 6.554175,12.41461 -0.109484,0.0993 -15.1982556,0.24431 -17.1246493,0.16453 z"
       id="path20"
       inkscape:connector-curvature="0" />
    <path
       style="stroke-width:0.1889881"
       d="m 7.5308207,250.2191 c -0.9614768,-0.0415 -1.7481396,-0.12688 -1.7481396,-0.18967 0,-0.23486 8.9290679,-16.75061 9.3078409,-17.21635 0.248259,-0.30526 0.21759,-0.35574 3.821199,6.2889 3.760468,6.93388 5.825748,10.87412 5.742512,10.95587 -0.105511,0.10363 -15.1723116,0.24551 -17.1234123,0.16125 z"
       id="path22"
       inkscape:connector-curvature="0" />
    <path
       style="stroke-width:0.1889881"
       d="m 7.0583505,250.2214 c -0.7016183,-0.0445 -1.2756694,-0.11791 -1.2756694,-0.16316 0,-0.1304 1.2170793,-2.63039 1.3316188,-2.73527 0.056758,-0.052 1.7070281,-3.07106 3.6672671,-6.70908 1.96024,-3.63802 3.771015,-6.94368 4.023945,-7.34591 l 0.459875,-0.73133 0.379508,0.62406 c 1.491002,2.45175 9.122281,16.7854 9.001111,16.90657 -0.110594,0.11059 -16.0685273,0.25043 -17.5876555,0.15412 z"
       id="path24"
       inkscape:connector-curvature="0" />
    <path
       style="stroke-width:0.1889881"
       d="m 5.2157166,265.37133 v -14.83557 h 9.9061264 c 7.748069,0 9.926891,-0.0515 10.001448,-0.23623 0.05243,-0.12993 0.102037,6.54607 0.110243,14.83556 l 0.01492,15.0718 H 15.232086 5.2157166 Z"
       id="path26"
       inkscape:connector-curvature="0" />
    <path
       style="stroke-width:0.1889881"
       d="m 6.9638565,250.20685 c -0.6496466,-0.0369 -1.1811754,-0.13013 -1.1811754,-0.20718 0,-0.077 1.5551361,-3.02829 3.4558578,-6.55832 4.6512431,-8.63831 5.8782861,-10.85436 6.0116841,-10.85712 0.191179,-0.004 9.429967,17.04308 9.430959,17.40163 7.68e-4,0.26194 -13.936276,0.43578 -17.7173255,0.22099 z"
       id="path28"
       inkscape:connector-curvature="0" />
    <path
       style="stroke-width:0.1889881"
       d="m 6.6803745,250.22289 c -0.4937316,-0.0472 -0.8973593,-0.14494 -0.8969505,-0.2172 0.0018,-0.31665 9.276755,-17.4238 9.446641,-17.4238 0.156287,0 1.026018,1.54382 4.628377,8.21559 3.551265,6.57714 4.883763,9.1736 4.767527,9.28984 -0.112531,0.11253 -16.8628672,0.23907 -17.9455945,0.13557 z"
       id="path30"
       inkscape:connector-curvature="0" />
    <path
       style="stroke-width:0.1889881"
       d="m 6.5858804,250.22334 c -0.4417597,-0.048 -0.8028652,-0.14618 -0.8024564,-0.21816 0.0018,-0.316 9.269441,-17.42329 9.438837,-17.42329 0.159046,0 0.340324,0.31491 3.295645,5.72496 3.534521,6.47034 6.229282,11.65925 6.114582,11.77395 -0.121331,0.12133 -17.0140365,0.25476 -18.0466076,0.14254 z"
       id="path32"
       inkscape:connector-curvature="0" />
    <path
       style="stroke-width:0.1889881"
       d="m 6.4913863,250.22392 c -0.3897879,-0.0489 -0.7087052,-0.13946 -0.7087052,-0.2012 0,-0.36089 9.2615059,-17.44083 9.4571939,-17.44083 0.328088,0 9.593804,17.29772 9.380158,17.51136 -0.117375,0.11738 -17.2506092,0.24087 -18.1286467,0.13067 z"
       id="path34"
       inkscape:connector-curvature="0" />
    <path
       style="stroke-width:0.1889881"
       d="m 6.3968922,250.22451 c -0.3378163,-0.0499 -0.6142111,-0.14175 -0.6142111,-0.20418 0,-0.18312 2.8628371,-5.60431 5.8655919,-11.10733 3.327451,-6.09809 3.458411,-6.32838 3.599647,-6.32991 0.348829,-0.004 9.595042,17.28723 9.366438,17.51584 -0.121347,0.12134 -17.4375612,0.24072 -18.2174658,0.12558 z"
       id="path36"
       inkscape:connector-curvature="0" />
    <path
       style="stroke-width:0.71428573"
       d=""
       id="path46"
       inkscape:connector-curvature="0"
       transform="matrix(0.26458333,0,0,0.26458333,0,237)" />
    <path
       style="stroke-width:0.71428573"
       d=""
       id="path50"
       inkscape:connector-curvature="0"
       transform="matrix(0.26458333,0,0,0.26458333,0,237)" />
    <path
       style="fill:none;stroke:#000000;stroke-width:0.26458332px;stroke-linecap:butt;stroke-linejoin:miter;stroke-opacity:1"
       d="m 11.717262,279.99107 -4.9136907,9.4494 16.2529757,-0.37797 -4.535714,-8.88244 z"
       id="path54"
       inkscape:connector-curvature="0" />
    <path
       style="fill:#cccccc;stroke-width:0.1889881"
       d="m 8.391437,280.24962 -3.1553811,-0.0518 -0.057417,-2.59407 c -0.031579,-1.42673 -0.034937,-8.1007 -0.00746,-14.83104 l 0.049955,-12.23698 h 9.6481091 c 6.289276,0 9.77537,-0.0681 10.013662,-0.19563 0.359669,-0.19249 0.365807,0.0106 0.381345,12.61495 0.01588,12.87743 -0.0068,17.11682 -0.09199,17.20202 -0.07529,0.0753 -13.364814,0.14857 -16.7808189,0.0925 z"
       id="path58"
       inkscape:connector-curvature="0" />
    <path
       style="fill:#c83737;stroke-width:0.1889881"
       d="M 5.3383721,279.79521 C 5.2737503,279.55389 5.2197165,272.87328 5.2182973,264.9494 l -0.00259,-14.40704 9.9019407,-0.0506 9.90194,-0.0505 0.134012,4.7247 c 0.169843,5.98803 0.05211,24.57989 -0.156981,24.78904 -0.08653,0.0866 -4.518603,0.18474 -9.849047,0.21817 l -9.6917149,0.0608 z"
       id="path60"
       inkscape:connector-curvature="0" />
    <path
       style="fill:#782121;stroke-width:0.1889881"
       d="m 6.3023981,250.22536 c -0.2858444,-0.051 -0.519717,-0.14224 -0.519717,-0.20282 0,-0.36751 9.2324849,-17.44065 9.4312219,-17.44065 0.376131,0 9.649422,17.26807 9.404707,17.51278 -0.132494,0.1325 -17.6068952,0.25718 -18.3162119,0.13069 z"
       id="path62"
       inkscape:connector-curvature="0" />
    <path
       style="fill:#a02c2c;stroke-width:0.1889881"
       d="m 5.5179972,280.04832 c -0.059365,-0.096 -0.165622,-6.77567 -0.2361261,-14.8436 L 5.1536816,250.53576 h 9.8347744 9.834775 l 0.118118,0.59059 c 0.06497,0.32482 0.118118,6.87027 0.118118,14.54543 0,13.09951 -0.02027,13.96528 -0.33073,14.12503 -0.452392,0.23278 -19.0716579,0.47655 -19.2107398,0.25151 z"
       id="path64"
       inkscape:connector-curvature="0" />
    <path
       style="fill:#a02c2c;stroke-width:0.71428573"
       d=""
       id="path68"
       inkscape:connector-curvature="0"
       transform="matrix(0.26458333,0,0,0.26458333,0,237)" />
    <path
       style="fill:#a02c2c;stroke-width:0.71428573"
       d=""
       id="path70"
       inkscape:connector-curvature="0"
       transform="matrix(0.26458333,0,0,0.26458333,0,237)" />
    <path
       style="fill:#a02c2c;stroke-width:0.71428573"
       d=""
       id="path72"
       inkscape:connector-curvature="0"
       transform="matrix(0.26458333,0,0,0.26458333,0,237)" />
    <path
       style="fill:#a02c2c;stroke-width:0.19888939"
       d="m 8.2945225,287.28889 c 0.606154,-1.33929 1.0496981,-2.49311 0.9856531,-2.56405 -0.064045,-0.0709 -0.012208,-0.12896 0.1151945,-0.12896 0.1274019,0 0.1835685,-0.0862 0.1248145,-0.19144 -0.058754,-0.10532 -0.030325,-0.22302 0.063174,-0.26164 0.0935,-0.0387 0.6118774,-0.98854 1.1519514,-2.11097 l 0.981952,-2.04076 h 3.182082 3.182083 l 0.616943,1.20353 c 0.339319,0.66194 0.686269,1.23512 0.771,1.27373 0.08473,0.0387 0.105985,0.15635 0.04723,0.26164 -0.05875,0.10533 -0.01174,0.19143 0.10447,0.19143 0.116213,0 0.158735,0.0942 0.09449,0.20931 -0.06424,0.11513 -0.01256,0.20931 0.114839,0.20931 0.127402,0 0.17927,0.058 0.115262,0.1289 -0.06401,0.0709 0.432085,1.34109 1.10243,2.82268 0.670345,1.48159 1.218809,2.74224 1.218809,2.80144 0,0.0593 -0.538616,0.10765 -1.196925,0.10765 -0.658308,0 -1.24762,0.0562 -1.309582,0.12476 -0.06196,0.0687 -1.883335,0.14829 -4.047495,0.17703 -2.164161,0.0288 -4.966607,0.0904 -6.2276582,0.13686 l -2.2928207,0.0846 z"
       id="path76"
       inkscape:connector-curvature="0" />
    <path
       style="fill:#3771c8;stroke:#000000;stroke-width:0.4502041px;stroke-linecap:butt;stroke-linejoin:miter;stroke-opacity:1"
       d="m 50.497672,289.67038 4.763261,12.76544 5.103492,-13.37332 z"
       id="path98"
       inkscape:connector-curvature="0" />
  </g>
</svg>
